<svg width="934" height="630" viewBox="0 0 934 630" fill="none" xmlns="http://www.w3.org/2000/svg">
<path d="M677.982 427.859C672.982 416.359 665.282 406.259 649.882 397.759C641.922 393.259 633.373 389.893 624.482 387.759C630.464 384.98 635.966 381.267 640.782 376.759C647.862 370.43 653.228 362.416 656.382 353.459C659.285 344.357 660.472 334.795 659.882 325.259C658.782 308.459 655.482 292.159 646.682 280.459C637.882 268.759 625.482 259.759 609.082 253.459C596.482 248.659 583.582 245.659 563.582 244.559V180.659L523.582 205.659V244.659H491.582V203.659L450.582 180.659V244.659H363.482L391.482 292.659C400.132 292.669 405.992 293.469 408.982 294.959C411.773 296.154 414.068 298.272 415.482 300.959C416.782 303.459 417.382 309.359 417.382 318.459V491.659C417.382 500.659 416.782 506.459 415.482 509.059C414.182 511.659 413.482 513.959 410.382 515.359C407.282 516.759 407.182 516.659 398.582 516.659H398.482L363.482 564.659H450.482V628.659H491.482V564.659H523.482V628.659H563.482V564.259C589.482 562.959 607.982 559.559 622.882 553.959C642.182 546.759 656.982 536.259 667.582 522.459C678.182 508.659 682.482 487.559 683.382 471.259C684.082 456.759 682.482 438.059 677.982 427.859ZM491.482 298.659H491.492V297.329H519.452C535.182 297.329 587.602 292.089 588.472 334.899C589.352 377.709 519.452 375.959 519.452 375.959H491.492V372.659H491.482V298.659ZM491.482 420.659H523.482C529.982 420.659 552.342 421.649 560.482 422.019C563.801 422.14 567.086 422.725 570.242 423.759C571.392 424.149 572.482 424.589 573.662 425.079C578.594 426.673 583.247 429.028 587.452 432.059C590.193 433.87 592.605 436.136 594.582 438.759C595.438 439.943 596.226 441.175 596.942 442.449C598.835 445.653 600.241 449.121 601.112 452.739C602.065 456.234 602.559 459.837 602.582 463.459C602.582 471.249 601.142 477.699 597.592 483.159C592.782 491.219 584.892 496.929 576.012 500.959C553.052 511.399 523.482 510.659 523.482 510.659H491.482V420.659Z" fill="#121212"/>
</svg>
