<svg width="512" height="512" viewBox="0 0 512 512" fill="none" xmlns="http://www.w3.org/2000/svg">
<path d="M304 184C290.768 184 280 194.768 280 208C280 221.232 290.768 232 304 232C317.232 232 328 221.232 328 208C328 194.768 317.232 184 304 184ZM304 216C299.584 216 296 212.408 296 208C296 203.592 299.584 200 304 200C308.416 200 312 203.592 312 208C312 212.408 308.416 216 304 216Z" fill="#E2E2E2"/>
<path d="M208 280C194.768 280 184 290.768 184 304C184 317.232 194.768 328 208 328C221.232 328 232 317.232 232 304C232 290.768 221.232 280 208 280ZM208 312C203.584 312 200 308.408 200 304C200 299.592 203.584 296 208 296C212.416 296 216 299.592 216 304C216 308.408 212.416 312 208 312Z" fill="#E2E2E2"/>
<path d="M160 424C146.768 424 136 434.768 136 448C136 461.232 146.768 472 160 472C173.232 472 184 461.232 184 448C184 434.768 173.232 424 160 424ZM160 456C155.584 456 152 452.408 152 448C152 443.592 155.584 440 160 440C164.416 440 168 443.592 168 448C168 452.408 164.416 456 160 456Z" fill="#E2E2E2"/>
<path d="M224 424C210.768 424 200 434.768 200 448C200 461.232 210.768 472 224 472C237.232 472 248 461.232 248 448C248 434.768 237.232 424 224 424ZM224 456C219.584 456 216 452.408 216 448C216 443.592 219.584 440 224 440C228.416 440 232 443.592 232 448C232 452.408 228.416 456 224 456Z" fill="#E2E2E2"/>
<path d="M296 296H248V312H312V248H296V296Z" fill="#E2E2E2"/>
<path d="M216 216H264V200H200V264H216V216Z" fill="#E2E2E2"/>
<path d="M264 360V392H280V360H296V392H312V360H328V392H344V360C352.824 360 360 352.824 360 344H392V328H360V312H392V296H360V280H392V264H360V248H392V232H360V216H392V200H360V184H392V168H360C360 159.176 352.824 152 344 152V120H328V152H312V120H296V152H280V120H264V152H248V120H232V152H216V120H200V152H184V120H168V152C159.176 152 152 159.176 152 168H120V184H152V200H120V216H152V232H120V248H152V264H120V280H152V296H120V312H152V328H120V344H152C152 352.824 159.176 360 168 360V392H184V360H200V392H216V360H232V392H248V360H264ZM168 168H344L344.008 344H168V168Z" fill="#E2E2E2"/>
<path d="M40 440H56V456H40V440Z" fill="#E2E2E2"/>
<path d="M72 440H88V456H72V440Z" fill="#E2E2E2"/>
<path d="M408 40H424V56H408V40Z" fill="#E2E2E2"/>
<path d="M440 40H456V56H440V40Z" fill="#E2E2E2"/>
<path d="M360 56H376V88H488V8H376V40H360V8H248V88H360V56ZM392 24H472V72H392V24ZM344 72H264V24H344V72Z" fill="#E2E2E2"/>
<path d="M280 40H296V56H280V40Z" fill="#E2E2E2"/>
<path d="M312 40H328V56H312V40Z" fill="#E2E2E2"/>
<path d="M104 392H88V408H72V392H56V408H40V392H24V408H8V488H24V504H40V488H56V504H72V488H88V504H104V488H120V408H104V392ZM104 472H24V424H104V472Z" fill="#E2E2E2"/>
<path d="M480 456C466.768 456 456 466.768 456 480C456 493.232 466.768 504 480 504C493.232 504 504 493.232 504 480C504 466.768 493.232 456 480 456ZM480 488C475.584 488 472 484.408 472 480C472 475.592 475.584 472 480 472C484.416 472 488 475.592 488 480C488 484.408 484.416 488 480 488Z" fill="#E2E2E2"/>
<path d="M328 472H440V488H328V472Z" fill="#E2E2E2"/>
<path d="M472 264V440H488V248H454.528C451.216 238.712 442.416 232 432 232C418.768 232 408 242.768 408 256C408 269.232 418.768 280 432 280C442.416 280 451.216 273.288 454.528 264H472ZM432 264C427.584 264 424 260.408 424 256C424 251.592 427.584 248 432 248C436.416 248 440 251.592 440 256C440 260.408 436.416 264 432 264Z" fill="#E2E2E2"/>
<path d="M424 440H264V456H440V296H424V440Z" fill="#E2E2E2"/>
<path d="M424 104H440V216H424V104Z" fill="#E2E2E2"/>
<path d="M456 208C456 221.232 466.768 232 480 232C493.232 232 504 221.232 504 208C504 194.768 493.232 184 480 184C466.768 184 456 194.768 456 208ZM488 208C488 212.408 484.416 216 480 216C475.584 216 472 212.408 472 208C472 203.592 475.584 200 480 200C484.416 200 488 203.592 488 208Z" fill="#E2E2E2"/>
<path d="M472 104H488V168H472V104Z" fill="#E2E2E2"/>
<path d="M32 376C45.232 376 56 365.232 56 352C56 338.768 45.232 328 32 328C18.768 328 8 338.768 8 352C8 365.232 18.768 376 32 376ZM32 344C36.416 344 40 347.592 40 352C40 356.408 36.416 360 32 360C27.584 360 24 356.408 24 352C24 347.592 27.584 344 32 344Z" fill="#E2E2E2"/>
<path d="M88 168H72V192H24V312H40V208H88V168Z" fill="#E2E2E2"/>
<path d="M56 248C56 261.232 66.768 272 80 272C93.232 272 104 261.232 104 248C104 234.768 93.232 224 80 224C66.768 224 56 234.768 56 248ZM88 248C88 252.408 84.416 256 80 256C75.584 256 72 252.408 72 248C72 243.592 75.584 240 80 240C84.416 240 88 243.592 88 248Z" fill="#E2E2E2"/>
<path d="M72 288H88V368H72V288Z" fill="#E2E2E2"/>
<path d="M32 56C45.232 56 56 45.232 56 32C56 18.768 45.232 8 32 8C18.768 8 8 18.768 8 32C8 45.232 18.768 56 32 56ZM32 24C36.416 24 40 27.592 40 32C40 36.408 36.416 40 32 40C27.584 40 24 36.408 24 32C24 27.592 27.584 24 32 24Z" fill="#E2E2E2"/>
<path d="M208 72C221.232 72 232 61.232 232 48C232 34.768 221.232 24 208 24C194.768 24 184 34.768 184 48C184 61.232 194.768 72 208 72ZM208 40C212.416 40 216 43.592 216 48C216 52.408 212.416 56 208 56C203.584 56 200 52.408 200 48C200 43.592 203.584 40 208 40Z" fill="#E2E2E2"/>
<path d="M120 112H152V56H168V40H136V96H104V152H120V112Z" fill="#E2E2E2"/>
<path d="M40 64H24V128H72V152H88V112H40V64Z" fill="#E2E2E2"/>
</svg>
